<svg data-v-fde0c5aa="" xmlns="http://www.w3.org/2000/svg" viewBox="0 0 300 300" class="iconAbove"><!----><defs data-v-fde0c5aa=""><!----></defs><rect data-v-fde0c5aa="" fill="transparent" x="0" y="0" width="300px" height="300px" class="logo-background-square"></rect><defs data-v-fde0c5aa=""><!----></defs><g data-v-fde0c5aa="" id="2d3a4aa2-7502-4c44-98c6-34d4df84e1be" fill="#000000" transform="matrix(3.448275792285792,0,0,3.448275792285792,14.482758650129432,169.03448120725352)"><path d="M4.37 5.60L4.37 5.60L4.37 5.60Q3.98 5.60 3.70 5.32L3.70 5.32L3.70 5.32Q3.42 5.04 3.42 4.63L3.42 4.63L3.42 4.63Q3.42 4.23 3.70 3.96L3.70 3.96L3.70 3.96Q3.98 3.68 4.37 3.68L4.37 3.68L4.37 3.68Q4.77 3.68 5.05 3.96L5.05 3.96L5.05 3.96Q5.33 4.23 5.33 4.63L5.33 4.63L5.33 4.63Q5.33 5.04 5.05 5.32L5.05 5.32L5.05 5.32Q4.77 5.60 4.37 5.60ZM5.18 6.59L5.18 12.33L7.15 12.33L7.15 13.75L1.60 13.75L1.60 12.33L3.57 12.33L3.57 8.01L1.60 8.01L1.60 6.59L5.18 6.59ZM12.39 13.92L12.39 13.92L12.39 13.92Q11.21 13.92 10.48 13.30L10.48 13.30L10.48 13.30Q9.74 12.68 9.74 11.54L9.74 11.54L9.74 11.54Q9.74 10.37 10.58 9.77L10.58 9.77L10.58 9.77Q11.42 9.17 12.60 9.17L12.60 9.17L12.60 9.17Q13.62 9.17 14.38 9.55L14.38 9.55L14.38 9.13L14.38 9.13Q14.38 7.84 12.96 7.84L12.96 7.84L12.96 7.84Q11.79 7.84 10.70 8.57L10.70 8.57L10.21 7.25L10.21 7.25Q11.51 6.43 13.10 6.43L13.10 6.43L13.10 6.43Q15.95 6.43 15.95 9.11L15.95 9.11L15.95 13.75L14.38 13.75L14.38 13.19L14.38 13.19Q13.62 13.92 12.39 13.92ZM12.68 12.50L12.68 12.50L12.68 12.50Q13.69 12.50 14.38 11.79L14.38 11.79L14.38 10.86L14.38 10.86Q13.73 10.54 12.85 10.54L12.85 10.54L12.85 10.54Q12.18 10.54 11.74 10.79L11.74 10.79L11.74 10.79Q11.30 11.05 11.30 11.54L11.30 11.54L11.30 11.54Q11.30 11.97 11.66 12.24L11.66 12.24L11.66 12.24Q12.03 12.50 12.68 12.50ZM23.51 6.43L23.51 6.43L23.51 6.43Q24.40 6.43 24.83 7.05L24.83 7.05L24.83 7.05Q25.26 7.67 25.26 9.14L25.26 9.14L25.26 13.75L23.79 13.75L23.79 9.38L23.79 9.38Q23.79 8.62 23.65 8.30L23.65 8.30L23.65 8.30Q23.51 7.97 23.13 7.97L23.13 7.97L23.13 7.97Q22.76 7.97 22.55 8.34L22.55 8.34L22.55 8.34Q22.33 8.72 22.33 9.39L22.33 9.39L22.33 13.75L20.86 13.75L20.86 9.34L20.86 9.34Q20.86 7.97 20.19 7.97L20.19 7.97L20.19 7.97Q19.80 7.97 19.57 8.34L19.57 8.34L19.57 8.34Q19.33 8.72 19.33 9.39L19.33 9.39L19.33 13.75L17.86 13.75L17.86 6.59L19.24 6.59L19.24 7.55L19.24 7.55Q19.63 6.43 20.65 6.43L20.65 6.43L20.65 6.43Q21.10 6.43 21.44 6.73L21.44 6.73L21.44 6.73Q21.78 7.04 21.92 7.46L21.92 7.46L21.92 7.46Q22.57 6.43 23.51 6.43ZM31.01 5.60L31.01 5.60L31.01 5.60Q30.62 5.60 30.34 5.32L30.34 5.32L30.34 5.32Q30.06 5.04 30.06 4.63L30.06 4.63L30.06 4.63Q30.06 4.23 30.33 3.96L30.33 3.96L30.33 3.96Q30.60 3.68 31.01 3.68L31.01 3.68L31.01 3.68Q31.42 3.68 31.70 3.96L31.70 3.96L31.70 3.96Q31.98 4.23 31.98 4.63L31.98 4.63L31.98 4.63Q31.98 5.04 31.70 5.32L31.70 5.32L31.70 5.32Q31.42 5.60 31.01 5.60ZM28.24 6.59L31.82 6.59L31.82 13.57L31.82 13.57Q31.82 15.06 31.10 15.77L31.10 15.77L31.10 15.77Q30.38 16.48 28.76 16.74L28.76 16.74L27.94 15.46L27.94 15.46Q29.25 15.23 29.73 14.85L29.73 14.85L29.73 14.85Q30.21 14.48 30.21 13.68L30.21 13.68L30.21 8.01L28.24 8.01L28.24 6.59ZM38.26 13.92L38.26 13.92L38.26 13.92Q37.09 13.92 36.35 13.30L36.35 13.30L36.35 13.30Q35.62 12.68 35.62 11.54L35.62 11.54L35.62 11.54Q35.62 10.37 36.46 9.77L36.46 9.77L36.46 9.77Q37.30 9.17 38.47 9.17L38.47 9.17L38.47 9.17Q39.49 9.17 40.25 9.55L40.25 9.55L40.25 9.13L40.25 9.13Q40.25 7.84 38.84 7.84L38.84 7.84L38.84 7.84Q37.66 7.84 36.57 8.57L36.57 8.57L36.08 7.25L36.08 7.25Q37.38 6.43 38.98 6.43L38.98 6.43L38.98 6.43Q41.82 6.43 41.82 9.11L41.82 9.11L41.82 13.75L40.25 13.75L40.25 13.19L40.25 13.19Q39.49 13.92 38.26 13.92ZM38.56 12.50L38.56 12.50L38.56 12.50Q39.56 12.50 40.25 11.79L40.25 11.79L40.25 10.86L40.25 10.86Q39.61 10.54 38.72 10.54L38.72 10.54L38.72 10.54Q38.05 10.54 37.61 10.79L37.61 10.79L37.61 10.79Q37.17 11.05 37.17 11.54L37.17 11.54L37.17 11.54Q37.17 11.97 37.53 12.24L37.53 12.24L37.53 12.24Q37.90 12.50 38.56 12.50ZM50.69 9.81L50.69 9.81L50.69 9.81Q50.69 10.43 50.64 10.79L50.64 10.79L45.77 10.79L45.77 10.79Q45.92 11.58 46.39 12.03L46.39 12.03L46.39 12.03Q46.86 12.49 47.60 12.49L47.60 12.49L47.60 12.49Q48.54 12.49 49.18 11.79L49.18 11.79L50.15 12.81L50.15 12.81Q49.14 13.92 47.59 13.92L47.59 13.92L47.59 13.92Q46.00 13.92 45.09 12.89L45.09 12.89L45.09 12.89Q44.17 11.87 44.17 10.16L44.17 10.16L44.17 10.16Q44.17 8.43 45.09 7.43L45.09 7.43L45.09 7.43Q46.02 6.43 47.59 6.43L47.59 6.43L47.59 6.43Q48.96 6.43 49.83 7.29L49.83 7.29L49.83 7.29Q50.69 8.15 50.69 9.81ZM45.75 9.42L45.75 9.42L49.11 9.42L49.11 9.42Q49.04 8.64 48.62 8.24L48.62 8.24L48.62 8.24Q48.19 7.84 47.59 7.84L47.59 7.84L47.59 7.84Q46.82 7.84 46.35 8.26L46.35 8.26L46.35 8.26Q45.88 8.68 45.75 9.42ZM59.46 13.75L57.69 13.75L55.65 9.80L54.59 10.82L54.59 13.75L52.98 13.75L52.98 4.40L54.59 3.64L54.59 9.04L57.08 6.59L59.00 6.59L56.84 8.67L59.46 13.75ZM64.74 5.60L64.74 5.60L64.74 5.60Q64.34 5.60 64.06 5.32L64.06 5.32L64.06 5.32Q63.78 5.04 63.78 4.63L63.78 4.63L63.78 4.63Q63.78 4.23 64.06 3.96L64.06 3.96L64.06 3.96Q64.34 3.68 64.74 3.68L64.74 3.68L64.74 3.68Q65.14 3.68 65.42 3.96L65.42 3.96L65.42 3.96Q65.70 4.23 65.70 4.63L65.70 4.63L65.70 4.63Q65.70 5.04 65.42 5.32L65.42 5.32L65.42 5.32Q65.14 5.60 64.74 5.60ZM65.55 6.59L65.55 12.33L67.52 12.33L67.52 13.75L61.96 13.75L61.96 12.33L63.94 12.33L63.94 8.01L61.96 8.01L61.96 6.59L65.55 6.59ZM75.25 6.43L75.25 6.43L75.25 6.43Q76.15 6.43 76.57 7.05L76.57 7.05L76.57 7.05Q77 7.67 77 9.14L77 9.14L77 13.75L75.53 13.75L75.53 9.38L75.53 9.38Q75.53 8.62 75.39 8.30L75.39 8.30L75.39 8.30Q75.25 7.97 74.87 7.97L74.87 7.97L74.87 7.97Q74.51 7.97 74.29 8.34L74.29 8.34L74.29 8.34Q74.07 8.72 74.07 9.39L74.07 9.39L74.07 13.75L72.60 13.75L72.60 9.34L72.60 9.34Q72.60 7.97 71.93 7.97L71.93 7.97L71.93 7.97Q71.54 7.97 71.31 8.34L71.31 8.34L71.31 8.34Q71.08 8.72 71.08 9.39L71.08 9.39L71.08 13.75L69.61 13.75L69.61 6.59L70.98 6.59L70.98 7.55L70.98 7.55Q71.37 6.43 72.39 6.43L72.39 6.43L72.39 6.43Q72.84 6.43 73.19 6.73L73.19 6.73L73.19 6.73Q73.53 7.04 73.67 7.46L73.67 7.46L73.67 7.46Q74.31 6.43 75.25 6.43Z"></path></g><defs data-v-fde0c5aa=""><linearGradient data-v-fde0c5aa="" gradientTransform="rotate(25)" id="577238b8-9e0d-4d86-98ba-88f8a90f2135" x1="0%" y1="0%" x2="100%" y2="0%"><stop data-v-fde0c5aa="" offset="0%" stop-color="#4E1A70" stop-opacity="1"></stop><stop data-v-fde0c5aa="" offset="100%" stop-color="#2B4CF2" stop-opacity="1"></stop></linearGradient></defs><g data-v-fde0c5aa="" id="d1f03fbc-0dbf-4d2c-9886-3805ebe97db9" stroke="none" fill="url(#577238b8-9e0d-4d86-98ba-88f8a90f2135)" transform="matrix(2.258620545291232,0,0,2.258620545291232,37.06897273543841,5.482767282526083)"><path d="M40 50h40V30H20v40h20z"></path></g><!----></svg>